<svg xmlns:ev="http://www.w3.org/2001/xml-events" width="1132" xmlns:xlink="http://www.w3.org/1999/xlink" viewBox="0 0 1132 804" xmlns="http://www.w3.org/2000/svg" height="804"><style type="text/css"><![CDATA[
.st2 {fill:#191919;font-family:Segoe Script;font-size:16pt}
.st8 {fill:#1f6391;font-family:宋体;font-size:16pt}
.st1 {fill:#303030;font-family:Segoe Print;font-size:16pt}
.st4 {fill:#696969;font-family:宋体;font-size:16pt}
.st9 {fill:#bc8000;font-family:Arial;font-size:16pt}
.st7 {fill:#e19a00;font-family:Arial;font-size:16pt}
.st5 {fill:#ffff00;font-family:Arial;font-size:16pt}
.st3 {fill:#ffffff;font-family:宋体;font-size:16pt}
.st6 {font-family:Arial;font-size:16pt}
]]></style><defs/><g transform="translate(5,5)" id="page1"><rect y="0" fill="#ffe4de" width="1123" stroke="#808080" x="0" height="794"/><g transform="matrix(1,0,0,-1,323.5,32)"><g transform="matrix(1,0,0,-1,0,11.6)"><path d="M7.1,9.4C7.1,9.4,.6,11,0,5C0,5,1.4,-1,9.4,.1C9.4,.1,12.8,1,16,5.8C16,5.8,19.5,9.5,24.3,9.9C24.3,9.9,16.3,5.4,16.3,3.1C16.3,3.1,18.5,.4,21.4,3.4C24.3,6.5,27.7,9.7,30.8,7.3C30.8,7.3,31.5,4.9,29.5,4.9C29.5,4.9,28.2,3.1,31.9,3.1C31.9,3.1,36.3,5.2,29.7,9.5C29.7,9.5,24.5,12.7,18,11.1C11.5,9.5,10.9,5.7,12.6,4.7C12.6,4.7,10.2,-0.2,4.6,1.5C4.6,1.5,-0.9,4.9,7.1,9.4z" fill="#f89f86" transform="translate(-0.01,0.02)" id="shape1"/><path d="M7.1,9.4C7.1,9.4,.6,11,0,5C0,5,1.4,-1,9.4,.1C9.4,.1,12.8,1,16,5.8C16,5.8,19.5,9.5,24.3,9.9C24.3,9.9,16.3,5.4,16.3,3.1C16.3,3.1,18.5,.4,21.4,3.4C24.3,6.5,27.7,9.7,30.8,7.3C30.8,7.3,31.5,4.9,29.5,4.9C29.5,4.9,28.2,3.1,31.9,3.1C31.9,3.1,36.3,5.2,29.7,9.5C29.7,9.5,24.5,12.7,18,11.1C11.5,9.5,10.9,5.7,12.6,4.7C12.6,4.7,10.2,-0.2,4.6,1.5C4.6,1.5,-0.9,4.9,7.1,9.4z" fill="#f89f86" transform="matrix(-1,0,0,1,66.6,0)" id="shape2"/></g><g transform="matrix(1,0,0,-1,67.8,11.6)"><path d="M7.1,9.4C7.1,9.4,.6,11,0,5C0,5,1.4,-1,9.4,.1C9.4,.1,12.8,1,16,5.8C16,5.8,19.5,9.5,24.3,9.9C24.3,9.9,16.3,5.4,16.3,3.1C16.3,3.1,18.5,.4,21.4,3.4C24.3,6.5,27.7,9.7,30.8,7.3C30.8,7.3,31.5,4.9,29.5,4.9C29.5,4.9,28.2,3.1,31.9,3.1C31.9,3.1,36.3,5.2,29.7,9.5C29.7,9.5,24.5,12.7,18,11.1C11.5,9.5,10.9,5.7,12.6,4.7C12.6,4.7,10.2,-0.2,4.6,1.5C4.6,1.5,-0.9,4.9,7.1,9.4z" fill="#47c0d5" transform="translate(-0.01,0.02)" id="shape3"/><path d="M7.1,9.4C7.1,9.4,.6,11,0,5C0,5,1.4,-1,9.4,.1C9.4,.1,12.8,1,16,5.8C16,5.8,19.5,9.5,24.3,9.9C24.3,9.9,16.3,5.4,16.3,3.1C16.3,3.1,18.5,.4,21.4,3.4C24.3,6.5,27.7,9.7,30.8,7.3C30.8,7.3,31.5,4.9,29.5,4.9C29.5,4.9,28.2,3.1,31.9,3.1C31.9,3.1,36.3,5.2,29.7,9.5C29.7,9.5,24.5,12.7,18,11.1C11.5,9.5,10.9,5.7,12.6,4.7C12.6,4.7,10.2,-0.2,4.6,1.5C4.6,1.5,-0.9,4.9,7.1,9.4z" fill="#47c0d5" transform="matrix(-1,0,0,1,66.6,0)" id="shape4"/></g><g transform="matrix(1,0,0,-1,135.6,11.6)"><path d="M7.1,9.4C7.1,9.4,.6,11,0,5C0,5,1.4,-1,9.4,.1C9.4,.1,12.8,1,16,5.8C16,5.8,19.5,9.5,24.3,9.9C24.3,9.9,16.3,5.4,16.3,3.1C16.3,3.1,18.5,.4,21.4,3.4C24.3,6.5,27.7,9.7,30.8,7.3C30.8,7.3,31.5,4.9,29.5,4.9C29.5,4.9,28.2,3.1,31.9,3.1C31.9,3.1,36.3,5.2,29.7,9.5C29.7,9.5,24.5,12.7,18,11.1C11.5,9.5,10.9,5.7,12.6,4.7C12.6,4.7,10.2,-0.2,4.6,1.5C4.6,1.5,-0.9,4.9,7.1,9.4z" fill="#fee51c" transform="translate(-0.01,0.02)" id="shape5"/><path d="M7.1,9.4C7.1,9.4,.6,11,0,5C0,5,1.4,-1,9.4,.1C9.4,.1,12.8,1,16,5.8C16,5.8,19.5,9.5,24.3,9.9C24.3,9.9,16.3,5.4,16.3,3.1C16.3,3.1,18.5,.4,21.4,3.4C24.3,6.5,27.7,9.7,30.8,7.3C30.8,7.3,31.5,4.9,29.5,4.9C29.5,4.9,28.2,3.1,31.9,3.1C31.9,3.1,36.3,5.2,29.7,9.5C29.7,9.5,24.5,12.7,18,11.1C11.5,9.5,10.9,5.7,12.6,4.7C12.6,4.7,10.2,-0.2,4.6,1.5C4.6,1.5,-0.9,4.9,7.1,9.4z" fill="#fee51c" transform="matrix(-1,0,0,1,66.6,0)" id="shape6"/></g><g transform="matrix(1,0,0,-1,203.5,11.6)"><path d="M7.1,9.4C7.1,9.4,.6,11,0,5C0,5,1.4,-1,9.4,.1C9.4,.1,12.8,1,16,5.8C16,5.8,19.5,9.5,24.3,9.9C24.3,9.9,16.3,5.4,16.3,3.1C16.3,3.1,18.5,.4,21.4,3.4C24.3,6.5,27.7,9.7,30.8,7.3C30.8,7.3,31.5,4.9,29.5,4.9C29.5,4.9,28.2,3.1,31.9,3.1C31.9,3.1,36.3,5.2,29.7,9.5C29.7,9.5,24.5,12.7,18,11.1C11.5,9.5,10.9,5.7,12.6,4.7C12.6,4.7,10.2,-0.2,4.6,1.5C4.6,1.5,-0.9,4.9,7.1,9.4z" fill="#65cf83" transform="translate(-0.01,0.02)" id="shape7"/><path d="M7.1,9.4C7.1,9.4,.6,11,0,5C0,5,1.4,-1,9.4,.1C9.4,.1,12.8,1,16,5.8C16,5.8,19.5,9.5,24.3,9.9C24.3,9.9,16.3,5.4,16.3,3.1C16.3,3.1,18.5,.4,21.4,3.4C24.3,6.5,27.7,9.7,30.8,7.3C30.8,7.3,31.5,4.9,29.5,4.9C29.5,4.9,28.2,3.1,31.9,3.1C31.9,3.1,36.3,5.2,29.7,9.5C29.7,9.5,24.5,12.7,18,11.1C11.5,9.5,10.9,5.7,12.6,4.7C12.6,4.7,10.2,-0.2,4.6,1.5C4.6,1.5,-0.9,4.9,7.1,9.4z" fill="#65cf83" transform="matrix(-1,0,0,1,66.6,0)" id="shape8"/></g><g transform="matrix(1,0,0,-1,271.3,11.6)"><path d="M7.1,9.4C7.1,9.4,.6,11,0,5C0,5,1.4,-1,9.4,.1C9.4,.1,12.8,1,16,5.8C16,5.8,19.5,9.5,24.3,9.9C24.3,9.9,16.3,5.4,16.3,3.1C16.3,3.1,18.5,.4,21.4,3.4C24.3,6.5,27.7,9.7,30.8,7.3C30.8,7.3,31.5,4.9,29.5,4.9C29.5,4.9,28.2,3.1,31.9,3.1C31.9,3.1,36.3,5.2,29.7,9.5C29.7,9.5,24.5,12.7,18,11.1C11.5,9.5,10.9,5.7,12.6,4.7C12.6,4.7,10.2,-0.2,4.6,1.5C4.6,1.5,-0.9,4.9,7.1,9.4z" fill="#f89f86" stroke="#f89f86" transform="translate(-0.01,0.02)" id="shape9"/><path d="M7.1,9.4C7.1,9.4,.6,11,0,5C0,5,1.4,-1,9.4,.1C9.4,.1,12.8,1,16,5.8C16,5.8,19.5,9.5,24.3,9.9C24.3,9.9,16.3,5.4,16.3,3.1C16.3,3.1,18.5,.4,21.4,3.4C24.3,6.5,27.7,9.7,30.8,7.3C30.8,7.3,31.5,4.9,29.5,4.9C29.5,4.9,28.2,3.1,31.9,3.1C31.9,3.1,36.3,5.2,29.7,9.5C29.7,9.5,24.5,12.7,18,11.1C11.5,9.5,10.9,5.7,12.6,4.7C12.6,4.7,10.2,-0.2,4.6,1.5C4.6,1.5,-0.9,4.9,7.1,9.4z" fill="#f89f86" stroke="#f89f86" transform="matrix(-1,0,0,1,66.6,0)" id="shape10"/></g><g transform="matrix(1,0,0,-1,339.1,11.6)"><path d="M7.1,9.4C7.1,9.4,.6,11,0,5C0,5,1.4,-1,9.4,.1C9.4,.1,12.8,1,16,5.8C16,5.8,19.5,9.5,24.3,9.9C24.3,9.9,16.3,5.4,16.3,3.1C16.3,3.1,18.5,.4,21.4,3.4C24.3,6.5,27.7,9.7,30.8,7.3C30.8,7.3,31.5,4.9,29.5,4.9C29.5,4.9,28.2,3.1,31.9,3.1C31.9,3.1,36.3,5.2,29.7,9.5C29.7,9.5,24.5,12.7,18,11.1C11.5,9.5,10.9,5.7,12.6,4.7C12.6,4.7,10.2,-0.2,4.6,1.5C4.6,1.5,-0.9,4.9,7.1,9.4z" fill="#47c0d5" transform="translate(-0.01,0.02)" id="shape11"/><path d="M7.1,9.4C7.1,9.4,.6,11,0,5C0,5,1.4,-1,9.4,.1C9.4,.1,12.8,1,16,5.8C16,5.8,19.5,9.5,24.3,9.9C24.3,9.9,16.3,5.4,16.3,3.1C16.3,3.1,18.5,.4,21.4,3.4C24.3,6.5,27.7,9.7,30.8,7.3C30.8,7.3,31.5,4.9,29.5,4.9C29.5,4.9,28.2,3.1,31.9,3.1C31.9,3.1,36.3,5.2,29.7,9.5C29.7,9.5,24.5,12.7,18,11.1C11.5,9.5,10.9,5.7,12.6,4.7C12.6,4.7,10.2,-0.2,4.6,1.5C4.6,1.5,-0.9,4.9,7.1,9.4z" fill="#47c0d5" transform="matrix(-1,0,0,1,66.6,0)" id="shape12"/></g><g transform="matrix(1,0,0,-1,406.9,11.6)"><path d="M7.1,9.4C7.1,9.4,.6,11,0,5C0,5,1.4,-1,9.4,.1C9.4,.1,12.8,1,16,5.8C16,5.8,19.5,9.5,24.3,9.9C24.3,9.9,16.3,5.4,16.3,3.1C16.3,3.1,18.5,.4,21.4,3.4C24.3,6.5,27.7,9.7,30.8,7.3C30.8,7.3,31.5,4.9,29.5,4.9C29.5,4.9,28.2,3.1,31.9,3.1C31.9,3.1,36.3,5.2,29.7,9.5C29.7,9.5,24.5,12.7,18,11.1C11.5,9.5,10.9,5.7,12.6,4.7C12.6,4.7,10.2,-0.2,4.6,1.5C4.6,1.5,-0.9,4.9,7.1,9.4z" fill="#fee51c" transform="translate(-0.01,0.02)" id="shape13"/><path d="M7.1,9.4C7.1,9.4,.6,11,0,5C0,5,1.4,-1,9.4,.1C9.4,.1,12.8,1,16,5.8C16,5.8,19.5,9.5,24.3,9.9C24.3,9.9,16.3,5.4,16.3,3.1C16.3,3.1,18.5,.4,21.4,3.4C24.3,6.5,27.7,9.7,30.8,7.3C30.8,7.3,31.5,4.9,29.5,4.9C29.5,4.9,28.2,3.1,31.9,3.1C31.9,3.1,36.3,5.2,29.7,9.5C29.7,9.5,24.5,12.7,18,11.1C11.5,9.5,10.9,5.7,12.6,4.7C12.6,4.7,10.2,-0.2,4.6,1.5C4.6,1.5,-0.9,4.9,7.1,9.4z" fill="#fee51c" transform="matrix(-1,0,0,1,66.6,0)" id="shape14"/></g></g><g transform="translate(213.87,38)" id="shape15"><text class="st1"><tspan y="37.9" x="194.4">Big Data Computing Platform</tspan></text></g><g transform="translate(223.33,454.5)"><path d="M30,0L668.3,0C684.8,0,698.3,13.4,698.3,30L698.3,40C698.3,56.6,684.8,70,668.3,70L30,70C13.4,70,0,56.6,0,40L0,30C0,13.4,13.4,0,30,0z" fill="#65cf83" stroke="#000000" id="shape16"/><path stroke-dasharray="6,2.5,2.5,2.5" d="M30,0L635.6,0C652.2,0,665.6,13.4,665.6,30L665.6,32.9C665.6,49.4,652.2,62.9,635.6,62.9L30,62.9C13.4,62.9,0,49.4,0,32.9L0,30C0,13.4,13.4,0,30,0z" fill="none" stroke="#000000" transform="translate(16.31,3.57)" id="shape17"/></g><g transform="translate(464.35,463.5)" id="shape18"><text class="st2"><tspan y="34" x="70">HDFS</tspan></text></g><g transform="translate(220.1,639)" id="shape19"><path d="M705.4,70L705.4,0L0,0L0,70L705.4,70z" fill="#000000" stroke="#000000"/><text class="st3"><tspan y="41.5" x="323.2">DATA</tspan></text></g><g transform="translate(220.1,549)" id="shape20"><path d="M200,70C206.6,70,212,64.6,212,58L212,12C212,5.4,206.6,0,200,0L12,0C5.4,0,0,5.4,0,12L0,58C0,64.6,5.4,70,12,70L200,70z" fill="#ffaf00" stroke="#ffaf00"/><text class="st3"><tspan y="41.5" x="52">HDFS API</tspan></text></g><g transform="translate(464.85,549)" id="shape21"><path d="M200,70C206.6,70,212,64.6,212,58L212,12C212,5.4,206.6,0,200,0L12,0C5.4,0,0,5.4,0,12L0,58C0,64.6,5.4,70,12,70L200,70z" fill="#f08300" stroke="#f08300"/><text class="st3"><tspan y="41.5" x="56">LogStash</tspan></text></g><g transform="translate(709.6,549)" id="shape22"><path d="M200,70C206.6,70,212,64.6,212,58L212,12C212,5.4,206.6,0,200,0L12,0C5.4,0,0,5.4,0,12L0,58C0,64.6,5.4,70,12,70L200,70z" fill="#fed372" stroke="#fed372"/><text class="st4"><tspan y="41.5" x="73">Sqoop</tspan></text></g><g transform="matrix(0,1,-1,0,114.4,175)" id="shape23"><path d="M538,70L538,0L0,0L0,70L538,70z" fill="#00b4f0" stroke="#00b4f0"/><text class="st3"><tspan y="41.5" x="151">服务调度监控系统 YARN</tspan></text></g><g transform="translate(465.36,352)"><path d="M30,0L403.2,0C419.8,0,433.2,13.4,433.2,30L433.2,40C433.2,56.6,419.8,70,403.2,70L30,70C13.4,70,0,56.6,0,40L0,30C0,13.4,13.4,0,30,0z" fill="#007fcc" stroke="#000000" id="shape24"/><path stroke-dasharray="6,2.5,2.5,2.5" d="M30,0L384.2,0C400.7,0,414.2,13.4,414.2,30L414.2,34.5C414.2,51.1,400.7,64.5,384.2,64.5L30,64.5C13.4,64.5,0,51.1,0,34.5L0,30C0,13.4,13.4,0,30,0z" fill="#007fcc" stroke="#000000" transform="translate(9.54,2.73)" id="shape25"/><text class="st5"><tspan y="41.5" x="189.1">Spark</tspan></text></g><g transform="translate(213.6,352)"><path d="M30,0L195,0C211.6,0,225,13.4,225,30L225,40C225,56.6,211.6,70,195,70L30,70C13.4,70,0,56.6,0,40L0,30C0,13.4,13.4,0,30,0z" fill="#00b4f0" stroke="#191919" id="shape26"/><path stroke-dasharray="6,2.5,2.5,2.5" d="M30,0L181.7,0C198.3,0,211.7,13.4,211.7,30L211.7,36.8C211.7,53.3,198.3,66.8,181.7,66.8L30,66.8C13.4,66.8,0,53.3,0,36.8L0,30C0,13.4,13.4,0,30,0z" fill="none" stroke="#000000" transform="translate(6.65,1.61)" id="shape27"/><text class="st6"><tspan y="41.5" x="56">MapReduce</tspan></text></g><g transform="translate(214.6,268.8)"><path d="M30,0L191,0C207.6,0,221,13.4,221,30L221,40C221,56.6,207.6,70,191,70L30,70C13.4,70,0,56.6,0,40L0,30C0,13.4,13.4,0,30,0z" fill="#00b4f0" stroke="#191919" id="shape28"/><path stroke-dasharray="6,2.5,2.5,2.5" d="M30,0L177.9,0C194.5,0,207.9,13.4,207.9,30L207.9,36.8C207.9,53.3,194.5,66.8,177.9,66.8L30,66.8C13.4,66.8,0,53.3,0,36.8L0,30C0,13.4,13.4,0,30,0z" fill="none" stroke="#000000" transform="translate(6.53,1.61)" id="shape29"/><text class="st6"><tspan y="41.5" x="90">Hive</tspan></text></g><g transform="translate(465.36,268.8)"><path d="M30,0L105.2,0C121.8,0,135.2,13.4,135.2,30L135.2,40C135.2,56.6,121.8,70,105.2,70L30,70C13.4,70,0,56.6,0,40L0,30C0,13.4,13.4,0,30,0z" fill="#0168a5" stroke="#000000" id="shape30"/><path stroke-dasharray="6,2.5,2.5,2.5" d="M30,0L99.3,0C115.8,0,129.3,13.4,129.3,30L129.3,34.5C129.3,51.1,115.8,64.5,99.3,64.5L30,64.5C13.4,64.5,0,51.1,0,34.5L0,30C0,13.4,13.4,0,30,0z" fill="#0168a5" stroke="#000000" transform="translate(2.98,2.73)" id="shape31"/><text class="st5"><tspan y="41.5" x="19.1">SparkSQL</tspan></text></g><g transform="translate(611.48,268.8)"><path d="M30,0L105.2,0C121.8,0,135.2,13.4,135.2,30L135.2,40C135.2,56.6,121.8,70,105.2,70L30,70C13.4,70,0,56.6,0,40L0,30C0,13.4,13.4,0,30,0z" fill="#0168a5" stroke="#000000" id="shape32"/><path stroke-dasharray="6,2.5,2.5,2.5" d="M30,0L99.3,0C115.8,0,129.3,13.4,129.3,30L129.3,34.5C129.3,51.1,115.8,64.5,99.3,64.5L30,64.5C13.4,64.5,0,51.1,0,34.5L0,30C0,13.4,13.4,0,30,0z" fill="#0168a5" stroke="#000000" transform="translate(2.98,2.73)" id="shape33"/><text class="st5"><tspan y="41.5" x="6.1">SparkStream</tspan></text></g><g transform="translate(757.6,268.8)"><path d="M30,0L105.2,0C121.8,0,135.2,13.4,135.2,30L135.2,40C135.2,56.6,121.8,70,105.2,70L30,70C13.4,70,0,56.6,0,40L0,30C0,13.4,13.4,0,30,0z" fill="#89c3eb" stroke="#000000" id="shape34"/><path stroke-dasharray="6,2.5,2.5,2.5" d="M30,0L99.3,0C115.8,0,129.3,13.4,129.3,30L129.3,34.5C129.3,51.1,115.8,64.5,99.3,64.5L30,64.5C13.4,64.5,0,51.1,0,34.5L0,30C0,13.4,13.4,0,30,0z" fill="#89c3eb" stroke="#000000" transform="translate(2.98,2.73)" id="shape35"/><text class="st5"><tspan y="41.5" x="37.1">MLLIB</tspan></text></g><g transform="matrix(0,1,-1,0,201.3,269)" id="shape36"><path d="M350,70L350,0L0,0L0,70L350,70z" fill="#30c9f7" stroke="#30c9f7"/><text class="st3"><tspan y="41.5" x="120">zookeeper</tspan></text></g><g transform="translate(214,175)"><path d="M30,0L668.3,0C684.8,0,698.3,13.4,698.3,30L698.3,40C698.3,56.6,684.8,70,668.3,70L30,70C13.4,70,0,56.6,0,40L0,30C0,13.4,13.4,0,30,0z" fill="#cfebf6" stroke="#000000" id="shape37"/><path stroke-dasharray="6,2.5,2.5,2.5" d="M30,0L637.5,0C654.1,0,667.5,13.4,667.5,30L667.5,34.5C667.5,51.1,654.1,64.5,637.5,64.5L30,64.5C13.4,64.5,0,51.1,0,34.5L0,30C0,13.4,13.4,0,30,0z" fill="#cfebf6" stroke="#000000" transform="translate(15.38,2.73)" id="shape38"/><text class="st7"><tspan y="41.5" x="256.1"> Analysis &amp;&amp; Report</tspan></text></g><path d="M456.7,180L456.7,0L0,0L0,180L456.7,180zM451.7,175L5,175L5,5L451.7,5L451.7,175z" fill="#3498db" stroke="#3498db" transform="translate(450.91,255)" id="shape39"/><g transform="translate(930.6,577)" id="shape40"><path d="M0,0L34,0C37.3,-0.5,40.6,.6,43,3C45.4,5.4,46.5,8.7,46,12L46,44.5C45.5,47.8,46.6,51.1,49,53.5C51.4,55.9,54.7,57,58,56.5C54.7,56,51.4,57.1,49,59.5C46.6,61.9,45.5,65.2,46,68.5L46,101C46.5,104.3,45.4,107.6,43,110C40.6,112.4,37.3,113.5,34,113L0,113" fill="none" stroke="#83b3e3"/><text class="st8"><tspan y="63" x="71">数据采集</tspan></text></g><g transform="translate(927.6,331)" id="shape41"><path d="M0,0L34,0C37.3,-0.5,40.6,.6,43,3C45.4,5.4,46.5,8.7,46,12L46,68C45.5,71.3,46.6,74.6,49,77C51.4,79.4,54.7,80.5,58,80C54.7,79.5,51.4,80.6,49,83C46.6,85.4,45.5,88.7,46,92L46,148C46.5,151.3,45.4,154.6,43,157C40.6,159.4,37.3,160.5,34,160L0,160" fill="none" stroke="#83b3e3"/><text class="st8"><tspan y="74" x="71">数据计算</tspan><tspan y="99" x="71">数据存储</tspan></text></g><g transform="translate(930.6,175)" id="shape42"><path d="M0,0L31,0C34.3,-0.5,37.6,.6,40,3C42.4,5.4,43.5,8.7,43,12L43,16C42.5,19.3,43.6,22.6,46,25C48.4,27.4,51.7,28.5,55,28C51.7,27.5,48.4,28.6,46,31C43.6,33.4,42.5,36.7,43,40L43,44C43.5,47.3,42.4,50.6,40,53C37.6,55.4,34.3,56.5,31,56L0,56" fill="none" stroke="#83b3e3"/><text class="st8"><tspan y="22" x="68">数据分析</tspan><tspan y="47" x="68">数据报表</tspan></text></g><g transform="matrix(1,0,0,-1,324.5,118)"><g transform="matrix(1,0,0,-1,0,11.6)"><path d="M7.1,9.4C7.1,9.4,.6,11,0,5C0,5,1.4,-1,9.4,.1C9.4,.1,12.8,1,16,5.8C16,5.8,19.5,9.5,24.3,9.9C24.3,9.9,16.3,5.4,16.3,3.1C16.3,3.1,18.5,.4,21.4,3.4C24.3,6.5,27.7,9.7,30.8,7.3C30.8,7.3,31.5,4.9,29.5,4.9C29.5,4.9,28.2,3.1,31.9,3.1C31.9,3.1,36.3,5.2,29.7,9.5C29.7,9.5,24.5,12.7,18,11.1C11.5,9.5,10.9,5.7,12.6,4.7C12.6,4.7,10.2,-0.2,4.6,1.5C4.6,1.5,-0.9,4.9,7.1,9.4z" fill="#f89f86" transform="translate(-0.01,0.02)" id="shape43"/><path d="M7.1,9.4C7.1,9.4,.6,11,0,5C0,5,1.4,-1,9.4,.1C9.4,.1,12.8,1,16,5.8C16,5.8,19.5,9.5,24.3,9.9C24.3,9.9,16.3,5.4,16.3,3.1C16.3,3.1,18.5,.4,21.4,3.4C24.3,6.5,27.7,9.7,30.8,7.3C30.8,7.3,31.5,4.9,29.5,4.9C29.5,4.9,28.2,3.1,31.9,3.1C31.9,3.1,36.3,5.2,29.7,9.5C29.7,9.5,24.5,12.7,18,11.1C11.5,9.5,10.9,5.7,12.6,4.7C12.6,4.7,10.2,-0.2,4.6,1.5C4.6,1.5,-0.9,4.9,7.1,9.4z" fill="#f89f86" transform="matrix(-1,0,0,1,66.6,0)" id="shape44"/></g><g transform="matrix(1,0,0,-1,67.8,11.6)"><path d="M7.1,9.4C7.1,9.4,.6,11,0,5C0,5,1.4,-1,9.4,.1C9.4,.1,12.8,1,16,5.8C16,5.8,19.5,9.5,24.3,9.9C24.3,9.9,16.3,5.4,16.3,3.1C16.3,3.1,18.5,.4,21.4,3.4C24.3,6.5,27.7,9.7,30.8,7.3C30.8,7.3,31.5,4.9,29.5,4.9C29.5,4.9,28.2,3.1,31.9,3.1C31.9,3.1,36.3,5.2,29.7,9.5C29.7,9.5,24.5,12.7,18,11.1C11.5,9.5,10.9,5.7,12.6,4.7C12.6,4.7,10.2,-0.2,4.6,1.5C4.6,1.5,-0.9,4.9,7.1,9.4z" fill="#47c0d5" transform="translate(-0.01,0.02)" id="shape45"/><path d="M7.1,9.4C7.1,9.4,.6,11,0,5C0,5,1.4,-1,9.4,.1C9.4,.1,12.8,1,16,5.8C16,5.8,19.5,9.5,24.3,9.9C24.3,9.9,16.3,5.4,16.3,3.1C16.3,3.1,18.5,.4,21.4,3.4C24.3,6.5,27.7,9.7,30.8,7.3C30.8,7.3,31.5,4.9,29.5,4.9C29.5,4.9,28.2,3.1,31.9,3.1C31.9,3.1,36.3,5.2,29.7,9.5C29.7,9.5,24.5,12.7,18,11.1C11.5,9.5,10.9,5.7,12.6,4.7C12.6,4.7,10.2,-0.2,4.6,1.5C4.6,1.5,-0.9,4.9,7.1,9.4z" fill="#47c0d5" transform="matrix(-1,0,0,1,66.6,0)" id="shape46"/></g><g transform="matrix(1,0,0,-1,135.6,11.6)"><path d="M7.1,9.4C7.1,9.4,.6,11,0,5C0,5,1.4,-1,9.4,.1C9.4,.1,12.8,1,16,5.8C16,5.8,19.5,9.5,24.3,9.9C24.3,9.9,16.3,5.4,16.3,3.1C16.3,3.1,18.5,.4,21.4,3.4C24.3,6.5,27.7,9.7,30.8,7.3C30.8,7.3,31.5,4.9,29.5,4.9C29.5,4.9,28.2,3.1,31.9,3.1C31.9,3.1,36.3,5.2,29.7,9.5C29.7,9.5,24.5,12.7,18,11.1C11.5,9.5,10.9,5.7,12.6,4.7C12.6,4.7,10.2,-0.2,4.6,1.5C4.6,1.5,-0.9,4.9,7.1,9.4z" fill="#fee51c" transform="translate(-0.01,0.02)" id="shape47"/><path d="M7.1,9.4C7.1,9.4,.6,11,0,5C0,5,1.4,-1,9.4,.1C9.4,.1,12.8,1,16,5.8C16,5.8,19.5,9.5,24.3,9.9C24.3,9.9,16.3,5.4,16.3,3.1C16.3,3.1,18.5,.4,21.4,3.4C24.3,6.5,27.7,9.7,30.8,7.3C30.8,7.3,31.5,4.9,29.5,4.9C29.5,4.9,28.2,3.1,31.9,3.1C31.9,3.1,36.3,5.2,29.7,9.5C29.7,9.5,24.5,12.7,18,11.1C11.5,9.5,10.9,5.7,12.6,4.7C12.6,4.7,10.2,-0.2,4.6,1.5C4.6,1.5,-0.9,4.9,7.1,9.4z" fill="#fee51c" transform="matrix(-1,0,0,1,66.6,0)" id="shape48"/></g><g transform="matrix(1,0,0,-1,203.5,11.6)"><path d="M7.1,9.4C7.1,9.4,.6,11,0,5C0,5,1.4,-1,9.4,.1C9.4,.1,12.8,1,16,5.8C16,5.8,19.5,9.5,24.3,9.9C24.3,9.9,16.3,5.4,16.3,3.1C16.3,3.1,18.5,.4,21.4,3.4C24.3,6.5,27.7,9.7,30.8,7.3C30.8,7.3,31.5,4.9,29.5,4.9C29.5,4.9,28.2,3.1,31.9,3.1C31.9,3.1,36.3,5.2,29.7,9.5C29.7,9.5,24.5,12.7,18,11.1C11.5,9.5,10.9,5.7,12.6,4.7C12.6,4.7,10.2,-0.2,4.6,1.5C4.6,1.5,-0.9,4.9,7.1,9.4z" fill="#65cf83" transform="translate(-0.01,0.02)" id="shape49"/><path d="M7.1,9.4C7.1,9.4,.6,11,0,5C0,5,1.4,-1,9.4,.1C9.4,.1,12.8,1,16,5.8C16,5.8,19.5,9.5,24.3,9.9C24.3,9.9,16.3,5.4,16.3,3.1C16.3,3.1,18.5,.4,21.4,3.4C24.3,6.5,27.7,9.7,30.8,7.3C30.8,7.3,31.5,4.9,29.5,4.9C29.5,4.9,28.2,3.1,31.9,3.1C31.9,3.1,36.3,5.2,29.7,9.5C29.7,9.5,24.5,12.7,18,11.1C11.5,9.5,10.9,5.7,12.6,4.7C12.6,4.7,10.2,-0.2,4.6,1.5C4.6,1.5,-0.9,4.9,7.1,9.4z" fill="#65cf83" transform="matrix(-1,0,0,1,66.6,0)" id="shape50"/></g><g transform="matrix(1,0,0,-1,271.3,11.6)"><path d="M7.1,9.4C7.1,9.4,.6,11,0,5C0,5,1.4,-1,9.4,.1C9.4,.1,12.8,1,16,5.8C16,5.8,19.5,9.5,24.3,9.9C24.3,9.9,16.3,5.4,16.3,3.1C16.3,3.1,18.5,.4,21.4,3.4C24.3,6.5,27.7,9.7,30.8,7.3C30.8,7.3,31.5,4.9,29.5,4.9C29.5,4.9,28.2,3.1,31.9,3.1C31.9,3.1,36.3,5.2,29.7,9.5C29.7,9.5,24.5,12.7,18,11.1C11.5,9.5,10.9,5.7,12.6,4.7C12.6,4.7,10.2,-0.2,4.6,1.5C4.6,1.5,-0.9,4.9,7.1,9.4z" fill="#f89f86" stroke="#f89f86" transform="translate(-0.01,0.02)" id="shape51"/><path d="M7.1,9.4C7.1,9.4,.6,11,0,5C0,5,1.4,-1,9.4,.1C9.4,.1,12.8,1,16,5.8C16,5.8,19.5,9.5,24.3,9.9C24.3,9.9,16.3,5.4,16.3,3.1C16.3,3.1,18.5,.4,21.4,3.4C24.3,6.5,27.7,9.7,30.8,7.3C30.8,7.3,31.5,4.9,29.5,4.9C29.5,4.9,28.2,3.1,31.9,3.1C31.9,3.1,36.3,5.2,29.7,9.5C29.7,9.5,24.5,12.7,18,11.1C11.5,9.5,10.9,5.7,12.6,4.7C12.6,4.7,10.2,-0.2,4.6,1.5C4.6,1.5,-0.9,4.9,7.1,9.4z" fill="#f89f86" stroke="#f89f86" transform="matrix(-1,0,0,1,66.6,0)" id="shape52"/></g><g transform="matrix(1,0,0,-1,339.1,11.6)"><path d="M7.1,9.4C7.1,9.4,.6,11,0,5C0,5,1.4,-1,9.4,.1C9.4,.1,12.8,1,16,5.8C16,5.8,19.5,9.5,24.3,9.9C24.3,9.9,16.3,5.4,16.3,3.1C16.3,3.1,18.5,.4,21.4,3.4C24.3,6.5,27.7,9.7,30.8,7.3C30.8,7.3,31.5,4.9,29.5,4.9C29.5,4.9,28.2,3.1,31.9,3.1C31.9,3.1,36.3,5.2,29.7,9.5C29.7,9.5,24.5,12.7,18,11.1C11.5,9.5,10.9,5.7,12.6,4.7C12.6,4.7,10.2,-0.2,4.6,1.5C4.6,1.5,-0.9,4.9,7.1,9.4z" fill="#47c0d5" transform="translate(-0.01,0.02)" id="shape53"/><path d="M7.1,9.4C7.1,9.4,.6,11,0,5C0,5,1.4,-1,9.4,.1C9.4,.1,12.8,1,16,5.8C16,5.8,19.5,9.5,24.3,9.9C24.3,9.9,16.3,5.4,16.3,3.1C16.3,3.1,18.5,.4,21.4,3.4C24.3,6.5,27.7,9.7,30.8,7.3C30.8,7.3,31.5,4.9,29.5,4.9C29.5,4.9,28.2,3.1,31.9,3.1C31.9,3.1,36.3,5.2,29.7,9.5C29.7,9.5,24.5,12.7,18,11.1C11.5,9.5,10.9,5.7,12.6,4.7C12.6,4.7,10.2,-0.2,4.6,1.5C4.6,1.5,-0.9,4.9,7.1,9.4z" fill="#47c0d5" transform="matrix(-1,0,0,1,66.6,0)" id="shape54"/></g><g transform="matrix(1,0,0,-1,406.9,11.6)"><path d="M7.1,9.4C7.1,9.4,.6,11,0,5C0,5,1.4,-1,9.4,.1C9.4,.1,12.8,1,16,5.8C16,5.8,19.5,9.5,24.3,9.9C24.3,9.9,16.3,5.4,16.3,3.1C16.3,3.1,18.5,.4,21.4,3.4C24.3,6.5,27.7,9.7,30.8,7.3C30.8,7.3,31.5,4.9,29.5,4.9C29.5,4.9,28.2,3.1,31.9,3.1C31.9,3.1,36.3,5.2,29.7,9.5C29.7,9.5,24.5,12.7,18,11.1C11.5,9.5,10.9,5.7,12.6,4.7C12.6,4.7,10.2,-0.2,4.6,1.5C4.6,1.5,-0.9,4.9,7.1,9.4z" fill="#fee51c" transform="translate(-0.01,0.02)" id="shape55"/><path d="M7.1,9.4C7.1,9.4,.6,11,0,5C0,5,1.4,-1,9.4,.1C9.4,.1,12.8,1,16,5.8C16,5.8,19.5,9.5,24.3,9.9C24.3,9.9,16.3,5.4,16.3,3.1C16.3,3.1,18.5,.4,21.4,3.4C24.3,6.5,27.7,9.7,30.8,7.3C30.8,7.3,31.5,4.9,29.5,4.9C29.5,4.9,28.2,3.1,31.9,3.1C31.9,3.1,36.3,5.2,29.7,9.5C29.7,9.5,24.5,12.7,18,11.1C11.5,9.5,10.9,5.7,12.6,4.7C12.6,4.7,10.2,-0.2,4.6,1.5C4.6,1.5,-0.9,4.9,7.1,9.4z" fill="#fee51c" transform="matrix(-1,0,0,1,66.6,0)" id="shape56"/></g></g><g transform="translate(676,175)"><path d="M30,0L186.8,0C203.4,0,216.8,13.4,216.8,30L216.8,40C216.8,56.6,203.4,70,186.8,70L30,70C13.4,70,0,56.6,0,40L0,30C0,13.4,13.4,0,30,0z" fill="#50bec1" stroke="#000000" id="shape57"/><path stroke-dasharray="6,2.5,2.5,2.5" d="M30,0L177.3,0C193.8,0,207.3,13.4,207.3,30L207.3,34.5C207.3,51.1,193.8,64.5,177.3,64.5L30,64.5C13.4,64.5,0,51.1,0,34.5L0,30C0,13.4,13.4,0,30,0z" fill="#50bec1" stroke="#000000" transform="translate(4.78,2.73)" id="shape58"/><text class="st9"><tspan y="41.5" x="25.4">Elastic &amp;&amp; Kibana</tspan></text></g></g></svg>